<?xml version="1.0" encoding="UTF-8" standalone="no"?>
<!-- Created with Inkscape (http://www.inkscape.org/) -->

<svg
   xmlns:dc="http://purl.org/dc/elements/1.1/"
   xmlns:cc="http://creativecommons.org/ns#"
   xmlns:rdf="http://www.w3.org/1999/02/22-rdf-syntax-ns#"
   xmlns:svg="http://www.w3.org/2000/svg"
   xmlns="http://www.w3.org/2000/svg"
   xmlns:xlink="http://www.w3.org/1999/xlink"
   xmlns:sodipodi="http://sodipodi.sourceforge.net/DTD/sodipodi-0.dtd"
   xmlns:inkscape="http://www.inkscape.org/namespaces/inkscape"
   width="2208"
   height="2208"
   viewBox="0 0 2208 2208"
   id="svg2"
   version="1.1"
   inkscape:version="0.91 r13725"
   sodipodi:docname="anim_splash.svg"
   inkscape:export-filename="/home/sunil/mobile-apps/trackMe/resources/splash.png"
   inkscape:export-xdpi="90"
   inkscape:export-ydpi="90">
  <defs
     id="defs4">
    <linearGradient
       inkscape:collect="always"
       id="linearGradient4302">
      <stop
         style="stop-color:#2aff2a;stop-opacity:1"
         offset="0"
         id="stop4304" />
      <stop
         style="stop-color:#0000ff;stop-opacity:1"
         offset="1"
         id="stop4306" />
    </linearGradient>
    <linearGradient
       inkscape:collect="always"
       xlink:href="#linearGradient4302"
       id="linearGradient4352"
       gradientUnits="userSpaceOnUse"
       x1="892.97485"
       y1="199.79346"
       x2="1337.442"
       y2="-313.36404" />
    <linearGradient
       inkscape:collect="always"
       xlink:href="#linearGradient4302"
       id="linearGradient4354"
       gradientUnits="userSpaceOnUse"
       x1="892.97485"
       y1="199.79346"
       x2="1337.442"
       y2="-313.36404" />
    <linearGradient
       inkscape:collect="always"
       xlink:href="#linearGradient4302"
       id="linearGradient4356"
       gradientUnits="userSpaceOnUse"
       x1="892.97485"
       y1="199.79346"
       x2="1337.442"
       y2="-313.36404" />
    <linearGradient
       inkscape:collect="always"
       xlink:href="#linearGradient4302"
       id="linearGradient4358"
       gradientUnits="userSpaceOnUse"
       x1="892.97485"
       y1="199.79346"
       x2="1337.442"
       y2="-313.36404" />
    <linearGradient
       inkscape:collect="always"
       xlink:href="#linearGradient4302"
       id="linearGradient4360"
       gradientUnits="userSpaceOnUse"
       x1="892.97485"
       y1="199.79346"
       x2="1337.442"
       y2="-313.36404" />
    <linearGradient
       inkscape:collect="always"
       xlink:href="#linearGradient4302"
       id="linearGradient4362"
       gradientUnits="userSpaceOnUse"
       x1="892.97485"
       y1="199.79346"
       x2="1337.442"
       y2="-313.36404" />
    <linearGradient
       inkscape:collect="always"
       xlink:href="#linearGradient4302"
       id="linearGradient4364"
       gradientUnits="userSpaceOnUse"
       x1="892.97485"
       y1="199.79346"
       x2="1337.442"
       y2="-313.36404" />
    <linearGradient
       inkscape:collect="always"
       xlink:href="#linearGradient4302"
       id="linearGradient4366"
       gradientUnits="userSpaceOnUse"
       x1="892.97485"
       y1="199.79346"
       x2="1337.442"
       y2="-313.36404" />
    <linearGradient
       inkscape:collect="always"
       xlink:href="#linearGradient4302"
       id="linearGradient4368"
       gradientUnits="userSpaceOnUse"
       x1="892.97485"
       y1="199.79346"
       x2="1337.442"
       y2="-313.36404" />
    <linearGradient
       inkscape:collect="always"
       xlink:href="#linearGradient4302"
       id="linearGradient4370"
       gradientUnits="userSpaceOnUse"
       x1="892.97485"
       y1="199.79346"
       x2="1337.442"
       y2="-313.36404" />
    <filter
       inkscape:collect="always"
       style="color-interpolation-filters:sRGB"
       id="filter4380"
       x="-0.025786223"
       width="1.0515724"
       y="-0.02244521"
       height="1.0448904">
      <feGaussianBlur
         inkscape:collect="always"
         stdDeviation="5.0093587"
         id="feGaussianBlur4382" />
    </filter>
  </defs>
  <sodipodi:namedview
     id="base"
     pagecolor="#ffffff"
     bordercolor="#666666"
     borderopacity="1.0"
     inkscape:pageopacity="0.0"
     inkscape:pageshadow="2"
     inkscape:zoom="0.24748737"
     inkscape:cx="296.20594"
     inkscape:cy="1344.6706"
     inkscape:document-units="px"
     inkscape:current-layer="layer1"
     showgrid="false"
     units="px"
     inkscape:window-width="1920"
     inkscape:window-height="1052"
     inkscape:window-x="0"
     inkscape:window-y="0"
     inkscape:window-maximized="1" />
  <metadata
     id="metadata7">
    <rdf:RDF>
      <cc:Work
         rdf:about="">
        <dc:format>image/svg+xml</dc:format>
        <dc:type
           rdf:resource="http://purl.org/dc/dcmitype/StillImage" />
        <dc:title></dc:title>
      </cc:Work>
    </rdf:RDF>
  </metadata>
  <g
     inkscape:label="Layer 1"
     inkscape:groupmode="layer"
     id="layer1"
     transform="translate(0,1155.6378)">
    <text
       xml:space="preserve"
       style="font-style:normal;font-weight:normal;font-size:460.00003052px;line-height:125%;font-family:sans-serif;letter-spacing:0px;word-spacing:0px;fill:#000000;fill-opacity:1;stroke:none;stroke-width:1px;stroke-linecap:butt;stroke-linejoin:miter;stroke-opacity:1"
       x="360.11951"
       y="152.06311"
       id="text4146"
       sodipodi:linespacing="125%"><tspan
         sodipodi:role="line"
         id="tspan4148"
         x="360.11951"
         y="152.06311" /></text>
    <g
       id="g4384"
       transform="translate(-119.93268,5.7970899e-6)">
      <g
         transform="matrix(1.5582246,0,0,1.5582246,-496.34737,28.825699)"
         style="fill:#333333;fill-opacity:1;filter:url(#filter4380)"
         id="g4289">
        <g
           transform="matrix(8.8890419,0,0,8.8890424,755.51901,-319.45606)"
           id="g3"
           style="fill:#333333;fill-opacity:1">
          <g
             id="g5"
             style="fill:#333333;fill-opacity:1">
            <path
               inkscape:connector-curvature="0"
               style="fill:#333333;fill-opacity:1"
               d="m 26.261,7.69 c 0.205,0 0.403,-0.022 0.596,-0.061 0.065,-0.013 0.125,-0.037 0.188,-0.053 0.126,-0.034 0.251,-0.067 0.37,-0.115 0.071,-0.028 0.135,-0.066 0.204,-0.1 0.104,-0.052 0.206,-0.104 0.304,-0.166 0.066,-0.044 0.128,-0.093 0.192,-0.142 0.088,-0.066 0.173,-0.134 0.255,-0.209 0.059,-0.056 0.113,-0.117 0.168,-0.178 0.072,-0.079 0.143,-0.161 0.207,-0.25 0.048,-0.066 0.093,-0.135 0.137,-0.207 0.056,-0.092 0.106,-0.186 0.154,-0.284 0.037,-0.076 0.07,-0.153 0.101,-0.232 0.038,-0.101 0.069,-0.206 0.097,-0.313 0.021,-0.083 0.043,-0.166 0.059,-0.251 0.005,-0.036 0.02,-0.069 0.024,-0.106 l 1.293,0 c 0.006,0.037 0.018,0.07 0.025,0.106 0.015,0.086 0.035,0.169 0.058,0.251 0.027,0.107 0.06,0.211 0.099,0.313 0.028,0.08 0.063,0.156 0.101,0.232 0.047,0.098 0.098,0.192 0.153,0.284 0.045,0.071 0.089,0.14 0.14,0.207 0.063,0.089 0.133,0.17 0.205,0.25 0.055,0.061 0.108,0.122 0.17,0.178 0.08,0.075 0.166,0.143 0.254,0.209 0.062,0.048 0.125,0.098 0.19,0.142 0.099,0.062 0.199,0.114 0.306,0.166 0.066,0.033 0.131,0.071 0.202,0.1 0.118,0.048 0.243,0.082 0.369,0.115 0.063,0.017 0.123,0.04 0.188,0.053 0.192,0.039 0.394,0.061 0.598,0.061 1.699,0 3.082,-1.384 3.082,-3.083 0,-1.634 -1.258,-2.976 -2.889,-3.062 -0.065,-0.005 -0.129,-0.02 -0.193,-0.02 -0.01,0 -0.02,0.002 -0.027,0.002 C 33.632,1.528 33.624,1.526 33.616,1.526 L 26.549,1.525 26.419,1.534 C 26.369,1.529 26.32,1.525 26.27,1.525 c -1.7,0 -3.082,1.382 -3.082,3.082 -0.009,1.699 1.373,3.083 3.073,3.083 z m 6.91,-5.271 0.096,-0.018 c 0.129,-0.024 0.26,-0.041 0.396,-0.041 1.236,0 2.244,1.009 2.244,2.246 0,1.239 -1.008,2.247 -2.244,2.247 -1.239,0 -2.247,-1.008 -2.247,-2.247 -0.001,-1.068 0.753,-1.961 1.755,-2.187 z M 31.566,2.361 C 31.06,2.833 30.721,3.471 30.624,4.19 l -1.32,0 C 29.205,3.471 28.866,2.833 28.361,2.361 l 3.205,0 z m -5.305,0 c 1.239,0 2.247,1.009 2.247,2.246 0,1.239 -1.008,2.247 -2.247,2.247 -1.238,0 -2.247,-1.008 -2.247,-2.247 0,-1.238 1.009,-2.246 2.247,-2.246 z"
               id="path7" />
            <path
               inkscape:connector-curvature="0"
               style="fill:#333333;fill-opacity:1"
               d="M 32.892,8.323 C 32.697,8.269 32.556,8.23 32.42,8.176 32.36,8.152 32.304,8.122 32.247,8.092 32.071,8.005 31.954,7.946 31.845,7.876 31.783,7.834 31.728,7.792 31.669,7.749 31.526,7.64 31.431,7.564 31.339,7.479 31.269,7.411 31.208,7.344 31.146,7.276 31.064,7.186 30.986,7.092 30.915,6.991 30.857,6.916 30.811,6.839 30.76,6.759 30.696,6.653 30.636,6.546 30.583,6.434 30.543,6.348 30.503,6.262 30.469,6.172 30.424,6.053 30.39,5.936 30.358,5.816 30.355,5.8 30.351,5.785 30.346,5.771 l -0.628,0 C 29.714,5.786 29.71,5.802 29.705,5.817 29.674,5.936 29.64,6.053 29.595,6.17 29.561,6.262 29.522,6.348 29.483,6.434 29.428,6.547 29.37,6.653 29.307,6.757 c -0.05,0.08 -0.101,0.159 -0.158,0.234 -0.072,0.101 -0.151,0.194 -0.233,0.285 -0.062,0.068 -0.123,0.135 -0.189,0.198 -0.095,0.09 -0.191,0.166 -0.29,0.242 -0.102,0.077 -0.159,0.119 -0.218,0.158 -0.111,0.071 -0.228,0.13 -0.345,0.19 -0.118,0.061 -0.175,0.089 -0.234,0.112 -0.133,0.054 -0.275,0.093 -0.418,0.132 -0.108,0.032 -0.16,0.048 -0.214,0.059 -0.651,0.131 -1.281,0.07 -1.847,-0.132 0.814,1.886 2.687,3.206 4.872,3.206 2.189,0 4.07,-1.328 4.878,-3.224 -0.369,0.133 -0.764,0.218 -1.18,0.218 -0.222,0 -0.449,-0.022 -0.679,-0.068 -0.054,-0.012 -0.108,-0.028 -0.16,-0.044 z"
               id="path9" />
            <path
               inkscape:connector-curvature="0"
               style="fill:#333333;fill-opacity:1"
               d="m 30.032,0 c -0.883,0 -1.711,0.218 -2.443,0.599 l 4.885,0 C 31.743,0.219 30.914,0 30.032,0 Z"
               id="path11" />
            <path
               inkscape:connector-curvature="0"
               style="fill:#333333;fill-opacity:1"
               d="M 46.637,5.248 38.694,2.267 c 0,0 -1.594,-0.586 -2.582,-0.291 0.688,0.638 1.119,1.537 1.119,2.541 0,0.761 -0.252,1.459 -0.664,2.035 l 2.769,1.609 c -2.438,1.72 -4.442,2.725 -6.185,4.384 -2.224,1.763 -3.023,6.805 -3.023,6.805 -0.592,-3.552 -2.979,-6.765 -2.979,-6.765 -1.724,-1.656 -4.19,-3.108 -6.646,-4.842 L 23.42,6.45 C 23.051,5.894 22.83,5.23 22.83,4.517 c 0,-1.026 0.453,-1.943 1.16,-2.583 -0.506,-0.269 -2.428,0.333 -2.428,0.333 l -7.94,2.981 c -0.485,0.538 -0.712,1.258 -0.626,1.978 0.087,0.718 0.479,1.364 1.078,1.771 1.646,1.122 5.716,3.976 8.207,5.998 l 0.097,1.387 -0.053,20.468 0,20.375 c 0,1.676 1.227,3.033 2.949,3.033 1.723,0 3.118,-1.357 3.118,-3.033 l 0,-21.229 c 0,0 0.101,-1.076 1.198,-1.088 1.097,-0.014 1.067,1.033 1.067,1.033 l 0,21.225 c 0,1.676 1.396,3.033 3.119,3.033 1.724,0 3.117,-1.357 3.117,-3.033 l 0.104,-21.9 c 0,-0.208 0.025,-19.323 0.025,-19.323 0,0 -0.012,-0.029 -0.027,-0.118 2.229,-1.976 7.303,-5.54 9.189,-6.828 0.6,-0.407 0.992,-1.053 1.078,-1.771 0.087,-0.719 -0.143,-1.44 -0.625,-1.978 z"
               id="path13" />
            <path
               inkscape:connector-curvature="0"
               style="fill:#333333;fill-opacity:1"
               d="m 33.151,12.545 -6.002,0.04 c 1.81,0.65 3.909,0.875 6.002,-0.04 z"
               id="path15" />
          </g>
        </g>
        <text
           xml:space="preserve"
           style="font-style:normal;font-weight:normal;font-size:126.89080048px;line-height:125%;font-family:sans-serif;letter-spacing:0px;word-spacing:0px;fill:#333333;fill-opacity:1;stroke:none;stroke-width:1px;stroke-linecap:butt;stroke-linejoin:miter;stroke-opacity:1"
           x="1087.1158"
           y="58.115051"
           id="text4168"
           sodipodi:linespacing="125%"><tspan
             style="fill:#333333;fill-opacity:1"
             sodipodi:role="line"
             id="tspan4170"
             x="1087.1158"
             y="58.115051">rack</tspan></text>
        <text
           xml:space="preserve"
           style="font-style:normal;font-weight:normal;font-size:183.00202942px;line-height:125%;font-family:sans-serif;letter-spacing:0px;word-spacing:0px;fill:#333333;fill-opacity:1;stroke:none;stroke-width:1px;stroke-linecap:butt;stroke-linejoin:miter;stroke-opacity:1"
           x="1080.0613"
           y="207.12346"
           id="text4172"
           sodipodi:linespacing="125%"><tspan
             style="fill:#333333;fill-opacity:1"
             sodipodi:role="line"
             id="tspan4174"
             x="1080.0613"
             y="207.12346">ME</tspan></text>
      </g>
      <g
         id="g4328"
         style="fill:url(#linearGradient4370);fill-opacity:1"
         transform="matrix(1.5582246,0,0,1.5582246,-496.34737,28.825693)">
        <g
           style="fill:url(#linearGradient4364);fill-opacity:1"
           id="g4330"
           transform="matrix(8.8890419,0,0,8.8890424,755.51901,-319.45606)">
          <g
             style="fill:url(#linearGradient4362);fill-opacity:1"
             id="g4332">
            <path
               id="path4334"
               d="m 26.261,7.69 c 0.205,0 0.403,-0.022 0.596,-0.061 0.065,-0.013 0.125,-0.037 0.188,-0.053 0.126,-0.034 0.251,-0.067 0.37,-0.115 0.071,-0.028 0.135,-0.066 0.204,-0.1 0.104,-0.052 0.206,-0.104 0.304,-0.166 0.066,-0.044 0.128,-0.093 0.192,-0.142 0.088,-0.066 0.173,-0.134 0.255,-0.209 0.059,-0.056 0.113,-0.117 0.168,-0.178 0.072,-0.079 0.143,-0.161 0.207,-0.25 0.048,-0.066 0.093,-0.135 0.137,-0.207 0.056,-0.092 0.106,-0.186 0.154,-0.284 0.037,-0.076 0.07,-0.153 0.101,-0.232 0.038,-0.101 0.069,-0.206 0.097,-0.313 0.021,-0.083 0.043,-0.166 0.059,-0.251 0.005,-0.036 0.02,-0.069 0.024,-0.106 l 1.293,0 c 0.006,0.037 0.018,0.07 0.025,0.106 0.015,0.086 0.035,0.169 0.058,0.251 0.027,0.107 0.06,0.211 0.099,0.313 0.028,0.08 0.063,0.156 0.101,0.232 0.047,0.098 0.098,0.192 0.153,0.284 0.045,0.071 0.089,0.14 0.14,0.207 0.063,0.089 0.133,0.17 0.205,0.25 0.055,0.061 0.108,0.122 0.17,0.178 0.08,0.075 0.166,0.143 0.254,0.209 0.062,0.048 0.125,0.098 0.19,0.142 0.099,0.062 0.199,0.114 0.306,0.166 0.066,0.033 0.131,0.071 0.202,0.1 0.118,0.048 0.243,0.082 0.369,0.115 0.063,0.017 0.123,0.04 0.188,0.053 0.192,0.039 0.394,0.061 0.598,0.061 1.699,0 3.082,-1.384 3.082,-3.083 0,-1.634 -1.258,-2.976 -2.889,-3.062 -0.065,-0.005 -0.129,-0.02 -0.193,-0.02 -0.01,0 -0.02,0.002 -0.027,0.002 C 33.632,1.528 33.624,1.526 33.616,1.526 L 26.549,1.525 26.419,1.534 C 26.369,1.529 26.32,1.525 26.27,1.525 c -1.7,0 -3.082,1.382 -3.082,3.082 -0.009,1.699 1.373,3.083 3.073,3.083 z m 6.91,-5.271 0.096,-0.018 c 0.129,-0.024 0.26,-0.041 0.396,-0.041 1.236,0 2.244,1.009 2.244,2.246 0,1.239 -1.008,2.247 -2.244,2.247 -1.239,0 -2.247,-1.008 -2.247,-2.247 -0.001,-1.068 0.753,-1.961 1.755,-2.187 z M 31.566,2.361 C 31.06,2.833 30.721,3.471 30.624,4.19 l -1.32,0 C 29.205,3.471 28.866,2.833 28.361,2.361 l 3.205,0 z m -5.305,0 c 1.239,0 2.247,1.009 2.247,2.246 0,1.239 -1.008,2.247 -2.247,2.247 -1.238,0 -2.247,-1.008 -2.247,-2.247 0,-1.238 1.009,-2.246 2.247,-2.246 z"
               style="fill:url(#linearGradient4352);fill-opacity:1"
               inkscape:connector-curvature="0" />
            <path
               id="path4336"
               d="M 32.892,8.323 C 32.697,8.269 32.556,8.23 32.42,8.176 32.36,8.152 32.304,8.122 32.247,8.092 32.071,8.005 31.954,7.946 31.845,7.876 31.783,7.834 31.728,7.792 31.669,7.749 31.526,7.64 31.431,7.564 31.339,7.479 31.269,7.411 31.208,7.344 31.146,7.276 31.064,7.186 30.986,7.092 30.915,6.991 30.857,6.916 30.811,6.839 30.76,6.759 30.696,6.653 30.636,6.546 30.583,6.434 30.543,6.348 30.503,6.262 30.469,6.172 30.424,6.053 30.39,5.936 30.358,5.816 30.355,5.8 30.351,5.785 30.346,5.771 l -0.628,0 C 29.714,5.786 29.71,5.802 29.705,5.817 29.674,5.936 29.64,6.053 29.595,6.17 29.561,6.262 29.522,6.348 29.483,6.434 29.428,6.547 29.37,6.653 29.307,6.757 c -0.05,0.08 -0.101,0.159 -0.158,0.234 -0.072,0.101 -0.151,0.194 -0.233,0.285 -0.062,0.068 -0.123,0.135 -0.189,0.198 -0.095,0.09 -0.191,0.166 -0.29,0.242 -0.102,0.077 -0.159,0.119 -0.218,0.158 -0.111,0.071 -0.228,0.13 -0.345,0.19 -0.118,0.061 -0.175,0.089 -0.234,0.112 -0.133,0.054 -0.275,0.093 -0.418,0.132 -0.108,0.032 -0.16,0.048 -0.214,0.059 -0.651,0.131 -1.281,0.07 -1.847,-0.132 0.814,1.886 2.687,3.206 4.872,3.206 2.189,0 4.07,-1.328 4.878,-3.224 -0.369,0.133 -0.764,0.218 -1.18,0.218 -0.222,0 -0.449,-0.022 -0.679,-0.068 -0.054,-0.012 -0.108,-0.028 -0.16,-0.044 z"
               style="fill:url(#linearGradient4354);fill-opacity:1"
               inkscape:connector-curvature="0" />
            <path
               id="path4338"
               d="m 30.032,0 c -0.883,0 -1.711,0.218 -2.443,0.599 l 4.885,0 C 31.743,0.219 30.914,0 30.032,0 Z"
               style="fill:url(#linearGradient4356);fill-opacity:1"
               inkscape:connector-curvature="0" />
            <path
               id="path4340"
               d="M 46.637,5.248 38.694,2.267 c 0,0 -1.594,-0.586 -2.582,-0.291 0.688,0.638 1.119,1.537 1.119,2.541 0,0.761 -0.252,1.459 -0.664,2.035 l 2.769,1.609 c -2.438,1.72 -4.442,2.725 -6.185,4.384 -2.224,1.763 -3.023,6.805 -3.023,6.805 -0.592,-3.552 -2.979,-6.765 -2.979,-6.765 -1.724,-1.656 -4.19,-3.108 -6.646,-4.842 L 23.42,6.45 C 23.051,5.894 22.83,5.23 22.83,4.517 c 0,-1.026 0.453,-1.943 1.16,-2.583 -0.506,-0.269 -2.428,0.333 -2.428,0.333 l -7.94,2.981 c -0.485,0.538 -0.712,1.258 -0.626,1.978 0.087,0.718 0.479,1.364 1.078,1.771 1.646,1.122 5.716,3.976 8.207,5.998 l 0.097,1.387 -0.053,20.468 0,20.375 c 0,1.676 1.227,3.033 2.949,3.033 1.723,0 3.118,-1.357 3.118,-3.033 l 0,-21.229 c 0,0 0.101,-1.076 1.198,-1.088 1.097,-0.014 1.067,1.033 1.067,1.033 l 0,21.225 c 0,1.676 1.396,3.033 3.119,3.033 1.724,0 3.117,-1.357 3.117,-3.033 l 0.104,-21.9 c 0,-0.208 0.025,-19.323 0.025,-19.323 0,0 -0.012,-0.029 -0.027,-0.118 2.229,-1.976 7.303,-5.54 9.189,-6.828 0.6,-0.407 0.992,-1.053 1.078,-1.771 0.087,-0.719 -0.143,-1.44 -0.625,-1.978 z"
               style="fill:url(#linearGradient4358);fill-opacity:1"
               inkscape:connector-curvature="0" />
            <path
               id="path4342"
               d="m 33.151,12.545 -6.002,0.04 c 1.81,0.65 3.909,0.875 6.002,-0.04 z"
               style="fill:url(#linearGradient4360);fill-opacity:1"
               inkscape:connector-curvature="0" />
          </g>
        </g>
        <text
           sodipodi:linespacing="125%"
           id="text4344"
           y="58.115051"
           x="1087.1158"
           style="font-style:normal;font-weight:normal;font-size:126.89080048px;line-height:125%;font-family:sans-serif;letter-spacing:0px;word-spacing:0px;fill:url(#linearGradient4366);fill-opacity:1;stroke:none;stroke-width:1px;stroke-linecap:butt;stroke-linejoin:miter;stroke-opacity:1"
           xml:space="preserve"><tspan
             y="58.115051"
             x="1087.1158"
             id="tspan4346"
             sodipodi:role="line"
             style="fill:url(#linearGradient4366);fill-opacity:1">rack</tspan></text>
        <text
           sodipodi:linespacing="125%"
           id="text4348"
           y="207.12346"
           x="1080.0613"
           style="font-style:normal;font-weight:normal;font-size:183.00202942px;line-height:125%;font-family:sans-serif;letter-spacing:0px;word-spacing:0px;fill:url(#linearGradient4368);fill-opacity:1;stroke:none;stroke-width:1px;stroke-linecap:butt;stroke-linejoin:miter;stroke-opacity:1"
           xml:space="preserve"><tspan
             y="207.12346"
             x="1080.0613"
             id="tspan4350"
             sodipodi:role="line"
             style="fill:url(#linearGradient4368);fill-opacity:1">ME</tspan></text>
      </g>
    </g>
  </g>
</svg>
