<?xml version="1.0" encoding="iso-8859-1"?>
<!-- Generator: Adobe Illustrator 19.0.0, SVG Export Plug-In . SVG Version: 6.00 Build 0)  -->
<svg version="1.1" id="Capa_1" xmlns="http://www.w3.org/2000/svg" xmlns:xlink="http://www.w3.org/1999/xlink" x="0px" y="0px"
	 viewBox="0 0 512 512" style="enable-background:new 0 0 512 512;" xml:space="preserve">
<g>
	<path style="fill:#304FFE;" d="M256.003,0c-38.499,0.044-69.698,31.243-69.742,69.742v162.364h38.871v-16h-22.871V69.742
		c0.011-29.681,24.082-53.732,53.762-53.72c29.665,0.011,53.709,24.057,53.72,53.72v146.364h-22.871v16h38.871V69.742
		C325.701,31.243,294.502,0.044,256.003,0z"/>
	<path style="fill:#304FFE;" d="M286.874,295.908h22.871v146.364c0,29.681-24.061,53.741-53.741,53.741
		s-53.741-24.061-53.741-53.741l0,0V295.908h22.871v-16h-38.871v162.364c0.007,38.517,31.238,69.736,69.755,69.729
		c38.507-0.007,69.721-31.222,69.729-69.729V279.907h-38.871L286.874,295.908L286.874,295.908z"/>
	
		<rect x="68.11" y="129.821" transform="matrix(-0.427 0.9042 -0.9042 -0.427 272.5229 189.854)" style="fill:#304FFE;" width="16" height="102.898"/>
	
		<rect x="24.701" y="322.723" transform="matrix(-0.9042 0.4272 -0.4272 -0.9042 286.2904 597.2194)" style="fill:#304FFE;" width="102.907" height="16.001"/>
	
		<rect x="384.435" y="173.261" transform="matrix(-0.9042 0.4272 -0.4272 -0.9042 907.4349 158.9476)" style="fill:#304FFE;" width="102.907" height="16.001"/>
	
		<rect x="427.822" y="279.243" transform="matrix(-0.427 0.9042 -0.9042 -0.427 920.9526 77.8157)" style="fill:#304FFE;" width="16" height="102.898"/>
</g>
<g>
	<path style="fill:#B1FFFF;" d="M224.262,194.105V69.742c0.007-17.53,14.223-31.736,31.753-31.729
		c17.52,0.007,31.722,14.208,31.729,31.729v124.363H224.262z"/>
	<path style="fill:#B1FFFF;" d="M256.003,474.012c-17.52-0.022-31.719-14.22-31.741-31.741V317.908h63.482v124.363
		C287.722,459.792,273.524,473.99,256.003,474.012z"/>
</g>
<g>
</g>
<g>
</g>
<g>
</g>
<g>
</g>
<g>
</g>
<g>
</g>
<g>
</g>
<g>
</g>
<g>
</g>
<g>
</g>
<g>
</g>
<g>
</g>
<g>
</g>
<g>
</g>
<g>
</g>
</svg>
