<?xml version="1.0" encoding="UTF-8" standalone="no"?>
<!-- Generator: Adobe Illustrator 16.0.0, SVG Export Plug-In . SVG Version: 6.00 Build 0)  -->

<svg
   xmlns:dc="http://purl.org/dc/elements/1.1/"
   xmlns:cc="http://creativecommons.org/ns#"
   xmlns:rdf="http://www.w3.org/1999/02/22-rdf-syntax-ns#"
   xmlns:svg="http://www.w3.org/2000/svg"
   xmlns="http://www.w3.org/2000/svg"
   xmlns:sodipodi="http://sodipodi.sourceforge.net/DTD/sodipodi-0.dtd"
   xmlns:inkscape="http://www.inkscape.org/namespaces/inkscape"
   version="1.1"
   id="Capa_1"
   x="0px"
   y="0px"
   width="128"
   height="128"
   viewBox="0 0 34.3045 34.3045"
   xml:space="preserve"
   sodipodi:docname="closed_eyes.svg"
   inkscape:version="0.92.2 5c3e80d, 2017-08-06"><metadata
     id="metadata45"><rdf:RDF><cc:Work
         rdf:about=""><dc:format>image/svg+xml</dc:format><dc:type
           rdf:resource="http://purl.org/dc/dcmitype/StillImage" /><dc:title></dc:title></cc:Work></rdf:RDF></metadata><defs
     id="defs43" /><sodipodi:namedview
     pagecolor="#ffffff"
     bordercolor="#666666"
     borderopacity="1"
     objecttolerance="10"
     gridtolerance="10"
     guidetolerance="10"
     inkscape:pageopacity="0"
     inkscape:pageshadow="2"
     inkscape:window-width="1920"
     inkscape:window-height="1047"
     id="namedview41"
     showgrid="false"
     inkscape:zoom="0.4609375"
     inkscape:cx="256"
     inkscape:cy="256"
     inkscape:window-x="0"
     inkscape:window-y="33"
     inkscape:window-maximized="1"
     inkscape:current-layer="Capa_1" /><g
     id="g8"
     transform="matrix(0.23729088,0,0,0.23729088,0.5814322,2.2107349)"><g
       id="g6"><path
         d="m 128.942,77.41 0.87,-0.574 c 1.693,-1.171 2.091,-3.483 0.919,-5.165 -1.182,-1.697 -3.507,-2.08 -5.165,-0.925 -58.011,40.558 -100.239,1.996 -102.013,0.339 -1.497,-1.401 -3.856,-1.33 -5.25,0.158 -1.401,1.494 -1.333,3.831 0.149,5.237 0.08,0.076 1.401,1.285 3.812,3.074 l -7.431,12.255 c -1.06,1.748 -0.504,4.03 1.245,5.099 0.598,0.36 1.277,0.541 1.934,0.541 1.249,0 2.465,-0.635 3.172,-1.778 L 28.45,83.698 c 4.074,2.48 9.298,5.188 15.522,7.476 l -3.581,11.972 c -0.593,1.971 0.516,4.027 2.475,4.613 l 1.068,0.158 c 1.583,0 3.063,-1.04 3.545,-2.649 L 51.025,93.46 c 5.745,1.571 12.172,2.632 19.108,2.884 v 11.858 c 0,2.052 1.657,3.709 3.709,3.709 2.05,0 3.708,-1.657 3.708,-3.709 V 96.278 c 6.052,-0.332 12.466,-1.373 19.163,-3.283 l 4.565,12.038 c 0.569,1.483 1.979,2.391 3.468,2.391 l 1.312,-0.234 c 1.915,-0.728 2.886,-2.867 2.158,-4.781 L 103.771,90.68 c 6.098,-2.265 12.401,-5.247 18.911,-9.203 l 6.009,8.021 c 0.732,0.969 1.849,1.489 2.965,1.489 0.778,0 1.555,-0.236 2.222,-0.745 1.644,-1.23 1.976,-3.555 0.752,-5.192 z"
         id="path2"
         inkscape:connector-curvature="0"
         style="fill:#1a1b1c" /><path
         d="m 136.987,48.4 c 0,0 -1.479,-2.148 -4.603,-5.015 -1.527,-1.513 -3.53,-3.037 -5.871,-4.802 -2.385,-1.587 -5.093,-3.469 -8.23,-5.062 -3.128,-1.658 -6.599,-3.242 -10.384,-4.539 -3.76,-1.483 -7.901,-2.353 -12.215,-3.136 -4.334,-0.545 -8.909,-0.646 -13.521,-0.443 -4.628,0.391 -9.254,0.396 -13.917,0.962 -4.636,0.389 -9.247,0.812 -13.746,1.705 -2.253,0.392 -4.487,0.706 -6.662,1.188 -2.157,0.594 -4.294,1.182 -6.39,1.759 -4.196,1.043 -8.15,2.381 -11.799,3.951 -3.687,1.406 -7.106,2.823 -10.102,4.539 -3.032,1.601 -5.811,2.969 -8.2,4.342 C 9.074,45.4 7.078,46.746 5.436,47.854 2.235,50.095 0.405,51.378 0.405,51.378 L 0,52.647 c 0.186,0.588 0.818,0.897 1.412,0.7 l 0.119,-0.044 c 0,0 2.073,-0.706 5.72,-1.945 1.784,-0.625 3.962,-1.389 6.446,-2.268 2.526,-0.722 5.451,-1.357 8.557,-2.131 3.064,-0.884 6.511,-1.406 10.148,-1.847 1.781,-0.259 3.619,-0.539 5.501,-0.817 1.9,-0.203 3.856,-0.252 5.812,-0.395 1.966,-0.123 3.95,-0.245 5.96,-0.369 2.023,0.011 4.074,0.028 6.13,0.047 4.083,-0.121 8.264,0.236 12.413,0.6 8.292,0.582 16.336,3.31 23.89,4.571 7.588,1.261 14.882,1.614 21.316,1.967 6.457,0.184 12.017,0.307 16.094,0.107 4.057,-0.147 6.55,-0.399 6.55,-0.399 l 0.612,-0.235 c 0.569,-0.399 0.713,-1.2 0.307,-1.789 z"
         id="path4"
         inkscape:connector-curvature="0"
         style="fill:#1a1b1c" /></g></g><g
     id="g10"
     transform="translate(0,-102.9135)" /><g
     id="g12"
     transform="translate(0,-102.9135)" /><g
     id="g14"
     transform="translate(0,-102.9135)" /><g
     id="g16"
     transform="translate(0,-102.9135)" /><g
     id="g18"
     transform="translate(0,-102.9135)" /><g
     id="g20"
     transform="translate(0,-102.9135)" /><g
     id="g22"
     transform="translate(0,-102.9135)" /><g
     id="g24"
     transform="translate(0,-102.9135)" /><g
     id="g26"
     transform="translate(0,-102.9135)" /><g
     id="g28"
     transform="translate(0,-102.9135)" /><g
     id="g30"
     transform="translate(0,-102.9135)" /><g
     id="g32"
     transform="translate(0,-102.9135)" /><g
     id="g34"
     transform="translate(0,-102.9135)" /><g
     id="g36"
     transform="translate(0,-102.9135)" /><g
     id="g38"
     transform="translate(0,-102.9135)" /></svg>