<?xml version="1.0" encoding="UTF-8" standalone="no"?>
<!-- Generator: Adobe Illustrator 19.0.0, SVG Export Plug-In . SVG Version: 6.00 Build 0)  -->

<svg
   xmlns:dc="http://purl.org/dc/elements/1.1/"
   xmlns:cc="http://creativecommons.org/ns#"
   xmlns:rdf="http://www.w3.org/1999/02/22-rdf-syntax-ns#"
   xmlns:svg="http://www.w3.org/2000/svg"
   xmlns="http://www.w3.org/2000/svg"
   xmlns:sodipodi="http://sodipodi.sourceforge.net/DTD/sodipodi-0.dtd"
   xmlns:inkscape="http://www.inkscape.org/namespaces/inkscape"
   version="1.1"
   id="Capa_1"
   x="0px"
   y="0px"
   viewBox="0 0 58 58"
   style="enable-background:new 0 0 58 58;"
   xml:space="preserve"
   inkscape:version="0.91 r13725"
   sodipodi:docname="key2.svg"><metadata
     id="metadata5771"><rdf:RDF><cc:Work
         rdf:about=""><dc:format>image/svg+xml</dc:format><dc:type
           rdf:resource="http://purl.org/dc/dcmitype/StillImage" /><dc:title></dc:title></cc:Work></rdf:RDF></metadata><defs
     id="defs5769" /><sodipodi:namedview
     pagecolor="#ffffff"
     bordercolor="#666666"
     borderopacity="1"
     objecttolerance="10"
     gridtolerance="10"
     guidetolerance="10"
     inkscape:pageopacity="0"
     inkscape:pageshadow="2"
     inkscape:window-width="1280"
     inkscape:window-height="745"
     id="namedview5767"
     showgrid="false"
     inkscape:zoom="4.0689655"
     inkscape:cx="-11.182204"
     inkscape:cy="29"
     inkscape:window-x="0"
     inkscape:window-y="0"
     inkscape:window-maximized="1"
     inkscape:current-layer="Capa_1" /><path
     d="m 39.254135,5.7754231 c -7.626305,0 -13.830509,6.2042039 -13.830509,13.8305089 0,2.599322 0.733831,5.023729 1.985899,7.103186 L 6.3749482,47.743695 c -0.6353898,0.635389 -0.6353898,1.665355 0,2.300745 0.3181017,0.318102 0.7338305,0.476746 1.1503729,0.476746 0.4165423,0 0.8322711,-0.158644 1.1503728,-0.476746 l 2.9174231,-2.917423 5.358103,5.358101 c 0.318101,0.318102 0.73383,0.476746 1.150372,0.476746 0.416543,0 0.832272,-0.158644 1.150373,-0.476746 0.63539,-0.63539 0.63539,-1.665356 0,-2.300746 l -5.358102,-5.358101 1.767051,-1.767051 3.730984,3.730983 c 0.318101,0.318102 0.73383,0.476746 1.150372,0.476746 0.416543,0 0.832272,-0.158644 1.150373,-0.476746 0.63539,-0.63539 0.63539,-1.665356 0,-2.300746 l -3.730983,-3.730983 1.767051,-1.767051 5.358102,5.358102 c 0.318101,0.318102 0.73383,0.476746 1.150373,0.476746 0.416542,0 0.832271,-0.158644 1.150373,-0.476746 0.635389,-0.63539 0.635389,-1.665356 0,-2.300746 l -5.358102,-5.358101 7.383051,-7.383051 c 2.50983,2.545627 5.992678,4.128813 9.841627,4.128813 7.626305,0 13.830508,-6.204203 13.830508,-13.830508 0,-7.626305 -6.204203,-13.8305089 -13.830508,-13.8305089 z m 0,24.4067799 c -5.831593,0 -10.576271,-4.744678 -10.576271,-10.576271 0,-5.831593 4.744678,-10.5762709 10.576271,-10.5762709 5.831593,0 10.576271,4.7446779 10.576271,10.5762709 0,5.831593 -4.744678,10.576271 -10.576271,10.576271 z"
     id="path5735"
     inkscape:connector-curvature="0"
     style="fill:#263238;fill-opacity:1" /><g
     id="g5737" /><g
     id="g5739" /><g
     id="g5741" /><g
     id="g5743" /><g
     id="g5745" /><g
     id="g5747" /><g
     id="g5749" /><g
     id="g5751" /><g
     id="g5753" /><g
     id="g5755" /><g
     id="g5757" /><g
     id="g5759" /><g
     id="g5761" /><g
     id="g5763" /><g
     id="g5765" /></svg>