<?xml version="1.0" encoding="UTF-8" standalone="no"?>
<!-- Created with Inkscape (http://www.inkscape.org/) -->

<svg
   xmlns:dc="http://purl.org/dc/elements/1.1/"
   xmlns:cc="http://creativecommons.org/ns#"
   xmlns:rdf="http://www.w3.org/1999/02/22-rdf-syntax-ns#"
   xmlns:svg="http://www.w3.org/2000/svg"
   xmlns="http://www.w3.org/2000/svg"
   xmlns:sodipodi="http://sodipodi.sourceforge.net/DTD/sodipodi-0.dtd"
   xmlns:inkscape="http://www.inkscape.org/namespaces/inkscape"
   width="200"
   height="60"
   viewBox="0 0 200 60"
   id="svg4187"
   version="1.1"
   inkscape:version="0.91 r13725"
   sodipodi:docname="kodecamp_logo_white_200x60.svg"
   inkscape:export-filename="/home/sunil/Dropbox/My_GALLERY/logos/kodecamp_logo_black.svg.png"
   inkscape:export-xdpi="90"
   inkscape:export-ydpi="90">
  <defs
     id="defs4189" />
  <sodipodi:namedview
     id="base"
     pagecolor="#ffffff"
     bordercolor="#666666"
     borderopacity="1.0"
     inkscape:pageopacity="0.0"
     inkscape:pageshadow="2"
     inkscape:zoom="2.8"
     inkscape:cx="109.88275"
     inkscape:cy="61.756944"
     inkscape:document-units="px"
     inkscape:current-layer="layer1"
     showgrid="false"
     units="px"
     inkscape:window-width="1270"
     inkscape:window-height="713"
     inkscape:window-x="4"
     inkscape:window-y="0"
     inkscape:window-maximized="0" />
  <metadata
     id="metadata4192">
    <rdf:RDF>
      <cc:Work
         rdf:about="">
        <dc:format>image/svg+xml</dc:format>
        <dc:type
           rdf:resource="http://purl.org/dc/dcmitype/StillImage" />
        <dc:title></dc:title>
      </cc:Work>
    </rdf:RDF>
  </metadata>
  <g
     inkscape:label="Layer 1"
     inkscape:groupmode="layer"
     id="layer1"
     transform="translate(0,-992.36216)">
    <text
       xml:space="preserve"
       style="font-style:normal;font-variant:normal;font-weight:normal;font-stretch:normal;font-size:14.81196213px;line-height:125%;font-family:'GE Inspira';-inkscape-font-specification:'GE Inspira';letter-spacing:0px;word-spacing:0px;fill:#ffffff;fill-opacity:1;stroke:none;stroke-width:1px;stroke-linecap:butt;stroke-linejoin:miter;stroke-opacity:1;"
       x="8.4708862"
       y="1042.4316"
       id="text4234"
       sodipodi:linespacing="125%"><tspan
         sodipodi:role="line"
         id="tspan4236"
         x="8.4708862"
         y="1042.4316"
         style="font-style:normal;font-variant:normal;font-weight:normal;font-stretch:normal;font-size:12.50477314px;font-family:'URW Gothic L';-inkscape-font-specification:'URW Gothic L';fill:#ffffff;fill-opacity:1;">For Developers.</tspan></text>
    <text
       sodipodi:linespacing="125%"
       id="text4349"
       y="1042.4316"
       x="106.77592"
       style="font-style:normal;font-variant:normal;font-weight:normal;font-stretch:normal;font-size:14.81196213px;line-height:125%;font-family:'GE Inspira';-inkscape-font-specification:'GE Inspira';letter-spacing:0px;word-spacing:0px;fill:#ffffff;fill-opacity:1;stroke:none;stroke-width:1px;stroke-linecap:butt;stroke-linejoin:miter;stroke-opacity:1;"
       xml:space="preserve"><tspan
         style="font-style:normal;font-variant:normal;font-weight:normal;font-stretch:normal;font-size:12.50477314px;font-family:'URW Gothic L';-inkscape-font-specification:'URW Gothic L';fill:#ffffff;fill-opacity:1;"
         y="1042.4316"
         x="106.77592"
         id="tspan4351"
         sodipodi:role="line">By Developers.</tspan></text>
    <text
       xml:space="preserve"
       style="font-style:normal;font-weight:normal;font-size:13.0624094px;line-height:125%;font-family:sans-serif;letter-spacing:0px;word-spacing:0px;fill:#000000;fill-opacity:1;stroke:none;stroke-width:1px;stroke-linecap:butt;stroke-linejoin:miter;stroke-opacity:1"
       x="33.552094"
       y="919.08044"
       id="text4859-3"
       sodipodi:linespacing="125%"><tspan
         sodipodi:role="line"
         id="tspan4861-6"
         x="33.552094"
         y="919.08044" /></text>
    <path
       inkscape:connector-curvature="0"
       id="path4281"
       d="m 19.109097,1013.3804 -8.460502,0 0,16.5892 26.542752,0"
       style="fill:none;fill-rule:evenodd;stroke:#000000;stroke-width:1.58833456;stroke-linecap:butt;stroke-linejoin:miter;stroke-miterlimit:7;stroke-dasharray:none;stroke-opacity:1" />
    <g
       id="g4398"
       style="fill:#000000;fill-opacity:1;stroke:#000000;stroke-opacity:1"
       transform="matrix(1.047876,0,0,1.047876,1.4234214,-65.39943)">
      <path
         style="fill:#000000;fill-opacity:1;fill-rule:evenodd;stroke:#000000;stroke-width:1.40006673;stroke-linecap:butt;stroke-linejoin:miter;stroke-miterlimit:7;stroke-dasharray:none;stroke-opacity:1"
         d="m 20.765068,1018.4913 -15.4726752,8.9332"
         id="path4283"
         inkscape:connector-curvature="0" />
      <path
         inkscape:connector-curvature="0"
         id="path4285"
         d="m 36.038058,1028.2375 -15.826211,-9.2867"
         style="fill:#000000;fill-opacity:1;fill-rule:evenodd;stroke:#000000;stroke-width:2.80013347;stroke-linecap:butt;stroke-linejoin:miter;stroke-miterlimit:7;stroke-dasharray:none;stroke-opacity:1"
         sodipodi:nodetypes="cc" />
    </g>
    <path
       inkscape:connector-curvature="0"
       id="path4289"
       style="opacity:1;fill:#ffffff;fill-opacity:1;stroke:#000000;stroke-width:0;stroke-linecap:butt;stroke-linejoin:miter;stroke-miterlimit:4;stroke-dasharray:none"
       d="m 74.209175,1004.6949 -0.155951,1.1234 c -1.704981,0.026 -2.925335,0.2791 -3.662507,0.7726 -0.74478,0.4872 -1.206756,1.3768 -1.403056,2.669 l -1.184397,8.5394 0,0 7.528033,-5.2664 4.209283,-3.0067 c 1.69036,-1.2014 2.556878,-2.078 2.615779,-2.6236 l -0.04545,-0.3441 -0.1916,-0.2664 c -0.247879,-0.2271 -0.813045,-0.3636 -1.703087,-0.4155 l -2.150447,-0.059 0.155785,-1.1235 14.63604,0 -0.155791,1.1235 c -2.160982,0.077 -3.923554,0.396 -5.286828,0.948 -1.928028,0.7793 -4.181213,2.0715 -6.768787,3.8832 l -5.604856,3.9743 0,0 13.641344,14.7993 c 0.396642,0.4304 103.653168,0.7088 104.422218,0.7793 l 0.63516,0.059 -0.1558,1.1235 -113.45208,0 -1.064847,0 -10.160201,-12.5721 -0.0085,0 -1.367525,0.9482 -0.962843,6.9419 c -0.07906,0.448 -0.09338,0.8571 -0.04497,1.2402 0.04923,1.2924 0.878654,2.0262 2.496659,2.2014 l 1.642885,0.1169 -0.155785,1.1235 -17.480559,0 0.155929,-1.1235 c 1.616871,0 2.779053,-0.2012 3.47926,-0.6104 0.882742,-0.5065 1.396893,-1.3442 1.54128,-2.5067 l 2.480605,-17.8839 c 0.150688,-1.3313 -0.07965,-2.2339 -0.697705,-2.7209 -0.627585,-0.4805 -1.76229,-0.7208 -3.413039,-0.7208 l 0.155788,-1.1234 17.480553,0 z" />
    <path
       inkscape:connector-curvature="0"
       id="path4291"
       style="fill:#ffffff;fill-opacity:1;stroke:#000000;stroke-width:0;stroke-linecap:butt;stroke-linejoin:miter;stroke-miterlimit:4;stroke-dasharray:none"
       d="m 162.35726,1015.8224 10.14916,0 c 2.29949,0 3.89398,0.2687 4.78344,0.8065 0.88933,0.5376 1.21148,1.8734 0.96617,4.0075 l -0.86742,7.5437 -3.87116,0 0.75889,-6.6008 c 0.12185,-1.0587 0.0668,-1.6956 -0.16493,-1.9107 -0.23169,-0.2151 -0.85202,-0.3226 -1.86111,-0.3226 l -1.01576,8.8341 -4.01997,0 1.01577,-8.8341 -2.23332,0 -1.01574,8.8341 -4.04483,0 1.42081,-12.3577 z m -6.96626,9.1565 0.66771,-5.8066 -1.41446,0 c -0.65853,0.1158 -1.15701,0.3516 -1.49588,0.7073 -0.3386,0.3556 -0.53742,0.7898 -0.59634,1.3026 -0.0933,0.8107 0.14494,1.6171 0.71448,2.4196 0.56939,0.8022 1.27751,1.2613 2.12449,1.3771 z m -1.20541,-9.1565 6.30302,0 -1.42083,12.3577 -4.19376,0 c -2.21672,0 -3.83756,-0.7942 -4.86265,-2.3824 -1.02494,-1.588 -1.43104,-3.3084 -1.21799,-5.1613 0.21867,-1.9024 0.81634,-3.1804 1.79317,-3.8339 0.97666,-0.6534 2.17645,-0.9801 3.59904,-0.9801 z m -9.67511,-4.7397 3.85459,0 0.94811,4.02 -4.46677,0 c -0.90976,0 -1.63134,0.2688 -2.16461,0.8065 -0.53341,0.5376 -0.84846,1.2284 -0.94543,2.072 -0.17887,1.555 0.32643,3.0232 1.51585,4.4046 1.18944,1.3813 2.88444,2.072 5.08459,2.072 l -2.08202,3.6478 c -2.89507,0 -5.19472,-0.8975 -6.89905,-2.6925 -1.70433,-1.7949 -2.40816,-3.9826 -2.11145,-6.5634 0.0114,-0.1 0.0299,-0.2605 0.0556,-0.4839 0.0257,-0.2233 0.0451,-0.3928 0.0585,-0.5087 0.24338,-2.1174 1.02124,-3.776 2.33797,-4.9754 1.31661,-1.1993 2.91997,-1.799 4.81409,-1.799 z m -23.05451,0.1241 10.27321,0 0.77371,3.8463 -6.9978,0 -0.27965,2.4318 6.10447,0 -1.43756,3.8712 -5.11196,0 -0.32527,2.8287 7.24594,0 -1.42704,3.9953 -10.76947,0 1.95142,-16.9733 z m -16.91807,4.417 4.49149,0 -0.99858,8.6852 c 1.12503,0 2.38374,-0.6245 3.77642,-1.8735 1.39252,-1.2492 2.15247,-2.4277 2.27994,-3.5362 0.17691,-1.5386 0.11696,-2.5642 -0.1796,-3.0769 -0.29682,-0.5129 -1.09865,-0.7693 -2.40548,-0.7693 l -7.74218,0 1.45961,-3.8463 7.19618,0 c 2.34908,0 4.07799,0.4673 5.18643,1.4019 1.10843,0.9348 1.51897,2.6512 1.23176,5.1492 -0.29284,2.5476 -1.4799,4.9215 -3.56071,7.1219 -2.08097,2.2001 -4.69312,3.3003 -7.83619,3.3003 l -4.3427,0 1.44361,-12.5563 z m -11.221176,8.6107 c 0.926486,0 1.786494,-0.5749 2.580502,-1.7246 0.793813,-1.1497 1.28401,-2.5353 1.470398,-4.1564 0.121699,-1.0589 -0.04082,-2.0184 -0.487977,-2.8785 -0.446933,-0.8603 -1.249516,-1.2904 -2.40755,-1.2904 -1.240801,0 -2.184011,0.4343 -2.829643,1.3027 -0.645934,0.8685 -1.028638,1.824 -1.148415,2.8662 -0.188304,1.6377 -6.41e-4,3.0272 0.562725,4.1687 0.563779,1.1416 1.317058,1.7123 2.25996,1.7123 z m 1.560574,-13.5736 c 3.225977,0 5.327382,0.6079 6.304052,1.8238 0.97697,1.2159 1.33317,2.9737 1.06875,5.2732 -0.35368,3.077 -1.45011,5.67 -3.289037,7.7793 -1.838896,2.1093 -3.89145,3.164 -6.157907,3.164 -2.382251,0 -4.146681,-1.0919 -5.293468,-3.2756 -1.146791,-2.1836 -1.552136,-4.7396 -1.215472,-7.6677 0.258779,-2.2499 0.935076,-3.9952 2.028988,-5.2358 1.093792,-1.2408 3.278546,-1.8612 6.554094,-1.8612 z" />
    <path
       inkscape:connector-curvature="0"
       id="path4293"
       style="fill:#ffffff;fill-opacity:1;stroke:#000000;stroke-width:0;stroke-linecap:butt;stroke-linejoin:miter;stroke-miterlimit:4;stroke-dasharray:none;stroke-opacity:1"
       d="m 185.05785,1018.891 -1.05948,0 -0.636,5.5324 c 0.73459,-0.1098 1.47636,-0.5885 2.22501,-1.4361 0.74879,-0.8475 1.16835,-1.6637 1.25864,-2.4484 0.0577,-0.5022 -0.0532,-0.9025 -0.33287,-1.2007 -0.27966,-0.2982 -0.76482,-0.4472 -1.4553,-0.4472 z m -4.52882,-3.2019 6.75679,0 c 1.08293,0 1.9573,0.4159 2.62279,1.2478 0.66564,0.8319 0.92351,1.8991 0.77365,3.2018 -0.25621,2.2286 -1.05947,3.9591 -2.40959,5.1912 -1.35009,1.2319 -3.12043,2.0913 -5.31089,2.5779 l -0.43852,4.5274 -3.8375,0 1.84327,-16.7461 z" />
  </g>
</svg>
