<?xml version="1.0" encoding="UTF-8" standalone="no"?>
<!-- Created with Inkscape (http://www.inkscape.org/) -->

<svg
   xmlns:dc="http://purl.org/dc/elements/1.1/"
   xmlns:cc="http://creativecommons.org/ns#"
   xmlns:rdf="http://www.w3.org/1999/02/22-rdf-syntax-ns#"
   xmlns:svg="http://www.w3.org/2000/svg"
   xmlns="http://www.w3.org/2000/svg"
   xmlns:xlink="http://www.w3.org/1999/xlink"
   xmlns:sodipodi="http://sodipodi.sourceforge.net/DTD/sodipodi-0.dtd"
   xmlns:inkscape="http://www.inkscape.org/namespaces/inkscape"
   width="200"
   height="36"
   viewBox="0 0 200 36.000001"
   id="svg2"
   version="1.1"
   inkscape:version="0.91 r13725"
   sodipodi:docname="kodecamp-logo-white.svg"
   inkscape:export-filename="/home/sunil/Dropbox/kodecamp-symbol.svg.png"
   inkscape:export-xdpi="90"
   inkscape:export-ydpi="90">
  <defs
     id="defs4">
    <linearGradient
       xlink:href="#grad1"
       id="grad2"
       x1="31.550531"
       y1="62.502422"
       x2="31.550531"
       y2="366.81009"
       gradientTransform="matrix(0.71359171,0,0,0.1369592,47.935587,999.97667)"
       gradientUnits="userSpaceOnUse" />
    <linearGradient
       id="grad1">
      <stop
         offset="0%"
         stop-color="#102a83"
         stop-opacity="1.0000"
         id="stop17" />
      <stop
         offset="100%"
         stop-color="#009ee0"
         stop-opacity="1.0000"
         id="stop19" />
    </linearGradient>
    <linearGradient
       gradientTransform="matrix(0.70930466,0,0,0.14138968,39.852434,999.95348)"
       xlink:href="#grad5"
       id="grad4"
       x1="115.09061"
       y1="125.58274"
       x2="115.09061"
       y2="326.31845"
       gradientUnits="userSpaceOnUse" />
    <linearGradient
       id="grad5">
      <stop
         offset="0%"
         stop-color="#e30016"
         stop-opacity="1.0000"
         id="stop39" />
      <stop
         offset="100%"
         stop-color="#ad191f"
         stop-opacity="1.0000"
         id="stop41" />
    </linearGradient>
    <linearGradient
       gradientTransform="matrix(0.25609706,0,0,0.35248458,51.27777,1001.3717)"
       xlink:href="#grad5"
       id="grad6"
       x1="829.6767"
       y1="68.338425"
       x2="829.6767"
       y2="143.11865"
       gradientUnits="userSpaceOnUse" />
  </defs>
  <sodipodi:namedview
     id="base"
     pagecolor="#ffffff"
     bordercolor="#666666"
     borderopacity="1.0"
     inkscape:pageopacity="0.0"
     inkscape:pageshadow="2"
     inkscape:zoom="2.8"
     inkscape:cx="94.963803"
     inkscape:cy="-9.9502844"
     inkscape:document-units="px"
     inkscape:current-layer="layer1"
     showgrid="false"
     units="px"
     inkscape:window-width="1280"
     inkscape:window-height="769"
     inkscape:window-x="0"
     inkscape:window-y="0"
     inkscape:window-maximized="1"
     showguides="true"
     borderlayer="true" />
  <metadata
     id="metadata7">
    <rdf:RDF>
      <cc:Work
         rdf:about="">
        <dc:format>image/svg+xml</dc:format>
        <dc:type
           rdf:resource="http://purl.org/dc/dcmitype/StillImage" />
        <dc:title></dc:title>
      </cc:Work>
    </rdf:RDF>
  </metadata>
  <g
     inkscape:label="Layer 1"
     inkscape:groupmode="layer"
     id="layer1"
     transform="translate(0,-1016.3622)">
    <text
       xml:space="preserve"
       style="font-style:normal;font-weight:normal;font-size:3.99307346px;line-height:125%;font-family:sans-serif;letter-spacing:0px;word-spacing:0px;fill:#000000;fill-opacity:1;stroke:none;stroke-width:1px;stroke-linecap:butt;stroke-linejoin:miter;stroke-opacity:1"
       x="18.180674"
       y="1052.5471"
       id="text4859"
       sodipodi:linespacing="125%"><tspan
         sodipodi:role="line"
         id="tspan4861"
         x="18.180674"
         y="1052.5471" /></text>
    <path
       inkscape:connector-curvature="0"
       id="path4281"
       d="m 21.877642,1031.2776 -8.073953,0 0,15.8313 25.33005,0"
       style="fill:none;fill-rule:evenodd;stroke:#ffffff;stroke-width:1.51576579;stroke-linecap:butt;stroke-linejoin:miter;stroke-miterlimit:7;stroke-dasharray:none;stroke-opacity:1" />
    <g
       id="g4398"
       style="fill:#0044aa;fill-opacity:1;stroke:#ffffff;stroke-opacity:1"
       transform="translate(5,1.7857139)">
      <path
         style="fill:#0044aa;fill-opacity:1;fill-rule:evenodd;stroke:#ffffff;stroke-width:1.40006673;stroke-linecap:butt;stroke-linejoin:miter;stroke-miterlimit:7;stroke-dasharray:none;stroke-opacity:1"
         d="m 20.765068,1018.4913 -15.4726752,8.9332"
         id="path4283"
         inkscape:connector-curvature="0" />
      <path
         inkscape:connector-curvature="0"
         id="path4285"
         d="m 36.038058,1028.2375 -15.826211,-9.2867"
         style="fill:#0044aa;fill-opacity:1;fill-rule:evenodd;stroke:#ffffff;stroke-width:2.80013347;stroke-linecap:butt;stroke-linejoin:miter;stroke-miterlimit:7;stroke-dasharray:none;stroke-opacity:1"
         sodipodi:nodetypes="cc" />
    </g>
    <path
       inkscape:connector-curvature="0"
       id="path4289"
       style="opacity:1;fill:#ffffff;fill-opacity:1;stroke:#333333;stroke-width:0;stroke-linecap:butt;stroke-linejoin:miter;stroke-miterlimit:4;stroke-dasharray:none"
       d="m 74.460272,1022.9889 -0.148823,1.0721 c -1.627079,0.025 -2.791679,0.2664 -3.495173,0.7373 -0.710749,0.4649 -1.151622,1.3139 -1.338949,2.5471 l -1.130285,8.1492 0,0 7.184086,-5.0258 4.016964,-2.8693 c 1.613132,-1.1465 2.44006,-1.9831 2.496271,-2.5037 l -0.04337,-0.3284 -0.182847,-0.2542 c -0.236552,-0.2168 -0.775898,-0.347 -1.625273,-0.3966 l -2.052198,-0.056 0.148668,-1.0721 13.967339,0 -0.148673,1.0721 c -2.062249,0.074 -3.744292,0.3779 -5.045278,0.9047 -1.839936,0.7437 -3.99018,1.9769 -6.45953,3.7058 l -5.34878,3.7927 0,0 13.018093,14.1232 c 0.378519,0.4107 98.917396,0.6764 99.651306,0.7437 l 0.60614,0.056 -0.14868,1.0721 -108.26861,0 -1.016197,0 -9.695995,-11.9977 -0.0081,0 -1.305044,0.9049 -0.91885,6.6247 c -0.07545,0.4276 -0.08912,0.818 -0.04294,1.1836 0.047,1.2333 0.838511,1.9336 2.382592,2.1008 l 1.567821,0.1116 -0.148668,1.0721 -16.681894,0 0.148806,-1.0721 c 1.542996,0 2.652082,-0.1921 3.320295,-0.5826 0.842411,-0.4833 1.333073,-1.2827 1.470863,-2.3921 l 2.36727,-17.0668 c 0.143801,-1.2705 -0.07601,-2.1319 -0.665828,-2.5966 -0.598913,-0.4586 -1.681775,-0.6879 -3.257103,-0.6879 l 0.14867,-1.0721 16.681892,0 z" />
    <path
       inkscape:connector-curvature="0"
       id="path4291"
       style="fill:#ffffff;fill-opacity:1;stroke:#ff2a2a;stroke-width:0;stroke-linecap:butt;stroke-linejoin:miter;stroke-miterlimit:4;stroke-dasharray:none"
       d="m 158.58099,1033.608 9.68546,0 c 2.19443,0 3.71607,0.2565 4.5649,0.7697 0.84869,0.513 1.15612,1.7878 0.92202,3.8244 l -0.82779,7.199 -3.69429,0 0.72422,-6.2992 c 0.11628,-1.0103 0.0637,-1.6181 -0.1574,-1.8234 -0.2211,-0.2053 -0.81309,-0.3079 -1.77608,-0.3079 l -0.96935,8.4305 -3.8363,0 0.96936,-8.4305 -2.13128,0 -0.96933,8.4305 -3.86003,0 1.35589,-11.7931 z m -6.64798,8.7382 0.63721,-5.5413 -1.34984,0 c -0.62844,0.1105 -1.10415,0.3355 -1.42753,0.675 -0.32313,0.3393 -0.51287,0.7537 -0.5691,1.2431 -0.089,0.7736 0.13832,1.5432 0.68184,2.309 0.54337,0.7656 1.21914,1.2037 2.02742,1.3142 z m -1.15033,-8.7382 6.01504,0 -1.35592,11.7931 -4.00215,0 c -2.11544,0 -3.66223,-0.7579 -4.64048,-2.2735 -0.97811,-1.5155 -1.36566,-3.1573 -1.16234,-4.9255 0.20868,-1.8155 0.77904,-3.0351 1.71124,-3.6587 0.93204,-0.6236 2.07701,-0.9354 3.43461,-0.9354 z m -9.23307,-4.5231 3.67848,0 0.90479,3.8363 -4.26269,0 c -0.86819,0 -1.55681,0.2565 -2.06571,0.7697 -0.50904,0.513 -0.8097,1.1722 -0.90224,1.9773 -0.17069,1.484 0.31152,2.8851 1.4466,4.2034 1.13509,1.3182 2.75265,1.9773 4.85228,1.9773 l -1.98689,3.4811 c -2.76281,0 -4.95739,-0.8565 -6.58385,-2.5694 -1.62646,-1.7129 -2.29813,-3.8007 -2.01498,-6.2636 0.0109,-0.095 0.0285,-0.2486 0.0531,-0.4618 0.0245,-0.2131 0.0431,-0.3748 0.0558,-0.4854 0.23226,-2.0207 0.97458,-3.6035 2.23115,-4.7481 1.25645,-1.1445 2.78656,-1.7168 4.59414,-1.7168 z m -22.00118,0.1184 9.80384,0 0.73836,3.6706 -6.67808,0 -0.26688,2.3207 5.82557,0 -1.37188,3.6943 -4.87841,0 -0.3104,2.6995 6.91488,0 -1.36184,3.8127 -10.27743,0 1.86227,-16.1978 z m -16.14511,4.2152 4.28628,0 -0.95296,8.2884 c 1.07363,0 2.27483,-0.596 3.60388,-1.7879 1.3289,-1.1921 2.05413,-2.3168 2.17577,-3.3746 0.16884,-1.4683 0.11162,-2.4471 -0.17139,-2.9364 -0.28326,-0.4894 -1.04845,-0.7341 -2.29557,-0.7341 l -7.38845,0 1.39292,-3.6706 6.86739,0 c 2.24176,0 3.89168,0.446 4.94947,1.3379 1.05779,0.8921 1.44957,2.53 1.17548,4.9139 -0.27945,2.4312 -1.41228,4.6967 -3.39802,6.7965 -1.98589,2.0996 -4.4787,3.1495 -7.47817,3.1495 l -4.14429,0 1.37766,-11.9826 z m -10.708494,8.2173 c 0.884157,0 1.704875,-0.5486 2.4626,-1.6458 0.757545,-1.0972 1.22535,-2.4195 1.403221,-3.9665 0.116138,-1.0105 -0.03896,-1.9262 -0.465683,-2.747 -0.426514,-0.821 -1.192429,-1.2314 -2.297552,-1.2314 -1.18411,0 -2.084225,0.4144 -2.700362,1.2431 -0.616422,0.8289 -0.981638,1.7407 -1.095946,2.7353 -0.179702,1.5629 -6.21e-4,2.8889 0.537019,3.9782 0.538019,1.0895 1.25688,1.6341 2.156703,1.6341 z m 1.489275,-12.9534 c 3.078588,0 5.08398,0.5801 6.016019,1.7404 0.93234,1.1604 1.27227,2.8379 1.01993,5.0323 -0.33752,2.9364 -1.383866,5.411 -3.138765,7.4239 -1.754881,2.0129 -3.713655,3.0194 -5.876562,3.0194 -2.273412,0 -3.957223,-1.042 -5.051618,-3.1259 -1.094396,-2.0839 -1.481222,-4.5231 -1.159938,-7.3174 0.246956,-2.1471 0.892352,-3.8127 1.936288,-4.9966 1.043819,-1.1841 3.12875,-1.7761 6.254646,-1.7761 z" />
    <path
       inkscape:connector-curvature="0"
       id="path4293"
       style="fill:#ffffff;fill-opacity:1;stroke:#ff2a2a;stroke-width:0;stroke-linecap:butt;stroke-linejoin:miter;stroke-miterlimit:4;stroke-dasharray:none;stroke-opacity:1"
       d="m 180.24443,1036.5364 -1.01108,0 -0.60694,5.2797 c 0.70103,-0.1048 1.40891,-0.5617 2.12335,-1.3705 0.71458,-0.8088 1.11497,-1.5877 1.20114,-2.3366 0.0551,-0.4792 -0.0508,-0.8612 -0.31767,-1.1458 -0.26688,-0.2846 -0.72987,-0.4268 -1.3888,-0.4268 z m -4.32191,-3.0556 6.44808,0 c 1.03346,0 1.86787,0.3969 2.50296,1.1908 0.63523,0.7939 0.88132,1.8123 0.7383,3.0555 -0.2445,2.1268 -1.01106,3.7782 -2.29949,4.954 -1.28841,1.1757 -2.97787,1.9958 -5.06825,2.4602 l -0.41849,4.3205 -3.66216,0 1.75905,-15.981 z" />
    <text
       xml:space="preserve"
       style="font-style:normal;font-weight:normal;font-size:14.79257488px;line-height:125%;font-family:sans-serif;letter-spacing:0px;word-spacing:0px;fill:#ffffff;fill-opacity:1;stroke:#ffffff;stroke-width:1px;stroke-linecap:butt;stroke-linejoin:miter;stroke-opacity:1;"
       x="18.477104"
       y="1042.8153"
       id="text4394"
       sodipodi:linespacing="125%"><tspan
         sodipodi:role="line"
         id="tspan4396"
         x="18.477104"
         y="1042.8153"
         style="font-style:normal;font-variant:normal;font-weight:bold;font-stretch:normal;font-family:sans-serif;-inkscape-font-specification:'sans-serif Bold';fill:#ffffff;fill-opacity:1;stroke:#ffffff;">@</tspan></text>
  </g>
</svg>
