<?xml version="1.0" encoding="iso-8859-1"?>
<!-- Generator: Adobe Illustrator 19.0.0, SVG Export Plug-In . SVG Version: 6.00 Build 0)  -->
<svg version="1.1" id="Layer_1" xmlns="http://www.w3.org/2000/svg" xmlns:xlink="http://www.w3.org/1999/xlink" x="0px" y="0px"
	 viewBox="0 0 512 512" style="enable-background:new 0 0 512 512;" xml:space="preserve">
<polygon style="fill:#CEE8FA;" points="289.73,256 140.589,169.892 140.589,342.108 "/>
<g>
	<path style="fill:#2D527C;" d="M297.052,243.318L147.911,157.21c-4.531-2.617-10.114-2.616-14.645,0s-7.322,7.45-7.322,12.682
		v30.824H14.645C6.556,200.716,0,207.273,0,215.361v81.278c0,8.088,6.556,14.645,14.645,14.645h111.299v30.824
		c0,5.233,2.791,10.067,7.322,12.682c2.266,1.308,4.793,1.962,7.322,1.962c2.529,0,5.057-0.655,7.322-1.962l149.141-86.108
		c4.531-2.616,7.322-7.45,7.322-12.682C304.374,250.767,301.584,245.933,297.052,243.318z M29.289,281.994v-51.988h96.655v51.988
		H29.289z M155.233,316.743v-20.104v-81.278v-20.104L260.44,256L155.233,316.743z"/>
	<path style="fill:#2D527C;" d="M497.355,494.995h-448.7c-8.088,0-14.645-6.556-14.645-14.645V378.352
		c0-8.088,6.556-14.645,14.645-14.645S63.3,370.263,63.3,378.352v87.354h419.411V46.295H63.3v87.354
		c0,8.088-6.556,14.645-14.645,14.645s-14.645-6.556-14.645-14.645V31.65c0-8.088,6.556-14.645,14.645-14.645h448.7
		c8.088,0,14.645,6.556,14.645,14.645v448.701C512,488.438,505.444,494.995,497.355,494.995z"/>
</g>
<rect x="341.835" y="128.097" style="fill:#CEE8FA;" width="85.916" height="255.798"/>
<path style="fill:#2D527C;" d="M427.751,398.542h-85.916c-8.088,0-14.645-6.556-14.645-14.645V128.104
	c0-8.088,6.556-14.645,14.645-14.645h85.916c8.088,0,14.645,6.556,14.645,14.645v255.793
	C442.396,391.986,435.839,398.542,427.751,398.542z M356.48,369.253h56.626V142.749H356.48V369.253z"/>
<g>
</g>
<g>
</g>
<g>
</g>
<g>
</g>
<g>
</g>
<g>
</g>
<g>
</g>
<g>
</g>
<g>
</g>
<g>
</g>
<g>
</g>
<g>
</g>
<g>
</g>
<g>
</g>
<g>
</g>
</svg>
