<?xml version="1.0" encoding="iso-8859-1"?>
<!-- Generator: Adobe Illustrator 19.0.0, SVG Export Plug-In . SVG Version: 6.00 Build 0)  -->
<svg version="1.1" id="Capa_1" xmlns="http://www.w3.org/2000/svg" xmlns:xlink="http://www.w3.org/1999/xlink" x="0px" y="0px"
	 viewBox="0 0 512 512" style="enable-background:new 0 0 512 512;" xml:space="preserve">
<polygon style="fill:#93603E;" points="308.545,344.858 207.577,344.858 190.658,367.523 325.463,367.523 "/>
<polygon style="fill:#7F4C2F;" points="203.476,350.352 190.658,367.523 325.463,367.523 312.646,350.352 "/>
<g>
	<path style="fill:#C16B3D;" d="M330.393,385.135c2.499,3.624,6.522,5.57,10.614,5.57c10.278,0,16.503-11.613,10.591-20.189
		l-35.445-51.415H284.87L330.393,385.135z"/>
	<path style="fill:#C16B3D;" d="M163.695,388.428c5.856,4.039,13.875,2.564,17.912-3.293l45.523-66.033h-31.284l-35.445,51.415
		C156.365,376.372,157.839,384.392,163.695,388.428z"/>
</g>
<g>
	<path style="fill:#AF542C;" d="M304.101,319.102H284.87l45.523,66.033c4.686,6.797,14.573,7.563,20.211,1.248
		C349.767,385.439,352.675,389.56,304.101,319.102z"/>
	<path style="fill:#AF542C;" d="M179.633,370.517l35.445-51.415h-19.232l-35.445,51.415c-4.037,5.855-2.563,13.875,3.294,17.911
		c5.415,3.734,12.671,2.747,16.927-2.051C176.767,382.047,176.197,375.502,179.633,370.517z"/>
</g>
<path style="fill:#FFA92C;" d="M340.995,307.769c0,6.827-5.535,12.363-12.363,12.363H183.368c-6.828,0-12.363-5.536-12.363-12.363
	V132.627c0-6.827,5.535-12.363,12.363-12.363h145.265c6.828,0,12.363,5.536,12.363,12.363v175.142H340.995z"/>
<path style="fill:#F49519;" d="M190.567,307.769V132.627c0-6.827,5.535-12.363,12.363-12.363h-19.563
	c-6.828,0-12.363,5.536-12.363,12.363v175.142c0,6.827,5.535,12.363,12.363,12.363h19.563
	C196.102,320.132,190.567,314.596,190.567,307.769z"/>
<g>
	<path style="fill:#6EDCF9;" d="M302.876,147.051h-93.752c-6.828,0-12.363,5.535-12.363,12.363v63.875
		c0,6.827,5.535,12.362,12.363,12.362h93.752c6.828,0,12.363-5.535,12.363-12.362v-63.875
		C315.239,152.586,309.704,147.051,302.876,147.051z"/>
	<circle style="fill:#6EDCF9;" cx="213.76" cy="276.86" r="16.999"/>
	<circle style="fill:#6EDCF9;" cx="298.24" cy="276.86" r="16.999"/>
</g>
<g>
	<path style="fill:#4AC8DD;" d="M222.259,262.155c-11.323-6.56-25.499,1.647-25.499,14.706c0,13.061,14.175,21.266,25.499,14.706
		C210.928,285.006,210.945,268.708,222.259,262.155z"/>
	<path style="fill:#4AC8DD;" d="M306.74,262.155c-11.323-6.56-25.498,1.647-25.498,14.706c0,13.061,14.175,21.266,25.498,14.706
		C295.408,285.006,295.425,268.708,306.74,262.155z"/>
</g>
<g>
	<path style="fill:#585A60;" d="M196.761,208.865v14.424c0,6.827,5.535,12.362,12.363,12.362h93.752
		c6.828,0,12.363-5.535,12.363-12.362v-14.424H196.761z"/>
	<path style="fill:#585A60;" d="M260.057,284.588h-8.113c-4.267,0-7.727-3.459-7.727-7.727c0-4.268,3.46-7.727,7.727-7.727h8.113
		c4.267,0,7.727,3.459,7.727,7.727C267.783,281.129,264.324,284.588,260.057,284.588z"/>
</g>
<path style="fill:#4AC8DD;" d="M256,208.865v-61.814h-46.876c-6.828,0-12.363,5.535-12.363,12.363v49.451L256,208.865L256,208.865z"
	/>
<path style="fill:#EA473B;" d="M256,0C114.617,0,0.002,114.617,0,256.001C0,397.385,114.617,512,256,512
	c141.385,0,256-114.615,256-255.999S397.385,0,256,0z M256,445.201c-104.492,0-189.201-84.709-189.201-189.2
	C66.8,151.508,151.508,66.799,256,66.799c104.493,0,189.201,84.709,189.201,189.202C445.201,360.492,360.493,445.201,256,445.201z"
	/>
<path style="fill:#E03B36;" d="M21.837,256.001C21.839,118.276,130.602,5.971,266.918,0.248C120.705-5.887,0.002,110.885,0,256.001
	c0,145.066,120.65,261.885,266.918,255.751C130.602,506.029,21.837,393.727,21.837,256.001z"/>
<path style="fill:#414356;" d="M217.366,223.289v-14.424h-20.605v14.424c0,6.827,5.535,12.362,12.363,12.362h20.605
	C222.901,235.651,217.366,230.116,217.366,223.289z"/>
<path style="fill:#25B9C1;" d="M217.366,159.414c0-6.828,5.535-12.363,12.363-12.363h-20.605c-6.828,0-12.363,5.535-12.363,12.363
	v49.451h20.605V159.414z"/>
<g>
</g>
<g>
</g>
<g>
</g>
<g>
</g>
<g>
</g>
<g>
</g>
<g>
</g>
<g>
</g>
<g>
</g>
<g>
</g>
<g>
</g>
<g>
</g>
<g>
</g>
<g>
</g>
<g>
</g>
</svg>
